<svg viewBox="0 0 1204.105 74.011" xmlns="http://www.w3.org/2000/svg">
	<g id="svgGroup" strokeLinecap="round" fillRule="evenodd" fontSize="9pt" stroke="#ffffff" strokeWidth="0.25mm" fill="#ffffff" style="stroke:#ffffff;stroke-width:0.25mm;fill:#ffffff">
		<path d="M 894.605 74.006 L 921.305 74.006 C 942.427 74.006 953.413 73.292 956.313 60.527 A 37.848 37.848 0 0 0 957.105 52.206 L 957.105 31.606 L 907.305 31.606 L 907.305 46.606 L 934.905 46.606 L 934.905 48.706 C 934.905 53.442 932.251 55.385 928.738 56.147 A 26.156 26.156 0 0 1 923.305 56.606 L 899.605 56.606 A 39.408 39.408 0 0 1 894.638 56.344 C 888.593 55.565 886.231 52.853 885.654 45.747 A 52.88 52.88 0 0 1 885.505 41.506 L 885.505 32.506 A 48.028 48.028 0 0 1 885.738 27.377 C 886.556 19.865 889.695 17.689 897.793 17.433 A 57.321 57.321 0 0 1 899.605 17.406 L 923.705 17.406 A 38.323 38.323 0 0 1 927.889 17.588 C 932.328 18.085 934.835 19.818 934.904 25.273 A 18.461 18.461 0 0 1 934.905 25.506 L 956.705 25.506 L 956.705 23.206 A 36.235 36.235 0 0 0 955.47 12.587 C 953.178 5.214 946.987 0.624 931.363 0.064 A 93.813 93.813 0 0 0 928.005 0.006 L 894.605 0.006 C 874.839 0.006 862.985 4.89 862.71 25.469 A 55.259 55.259 0 0 0 862.705 26.206 L 862.705 47.806 A 39.6 39.6 0 0 0 863.741 57.358 C 866.906 70.059 877.192 73.722 892.685 73.99 A 111.289 111.289 0 0 0 894.605 74.006 Z M 323.405 73.206 L 403.905 73.206 L 403.905 55.806 L 345.605 55.806 L 345.605 44.206 L 399.605 44.206 L 399.605 29.206 L 345.605 29.206 L 345.605 17.606 L 402.605 17.606 L 402.605 0.806 L 323.405 0.806 L 323.405 73.206 Z M 656.905 73.206 L 737.405 73.206 L 737.405 55.806 L 679.105 55.806 L 679.105 44.206 L 733.105 44.206 L 733.105 29.206 L 679.105 29.206 L 679.105 17.606 L 736.105 17.606 L 736.105 0.806 L 656.905 0.806 L 656.905 73.206 Z M 1123.605 73.206 L 1204.105 73.206 L 1204.105 55.806 L 1145.805 55.806 L 1145.805 44.206 L 1199.805 44.206 L 1199.805 29.206 L 1145.805 29.206 L 1145.805 17.606 L 1202.805 17.606 L 1202.805 0.806 L 1123.605 0.806 L 1123.605 73.206 Z M 106.205 73.206 L 128.405 73.206 L 128.405 20.606 L 128.605 20.606 L 170.305 73.206 L 204.705 73.206 L 204.705 0.806 L 182.505 0.806 L 182.505 53.406 L 182.305 53.406 L 140.605 0.806 L 106.205 0.806 L 106.205 73.206 Z M 750.805 73.206 L 773.005 73.206 L 773.005 20.606 L 773.205 20.606 L 814.905 73.206 L 849.305 73.206 L 849.305 0.806 L 827.105 0.806 L 827.105 53.406 L 826.905 53.406 L 785.205 0.806 L 750.805 0.806 L 750.805 73.206 Z M 1010.105 73.206 L 1032.305 73.206 L 1032.305 20.606 L 1032.505 20.606 L 1074.205 73.206 L 1108.605 73.206 L 1108.605 0.806 L 1086.405 0.806 L 1086.405 53.406 L 1086.205 53.406 L 1044.505 0.806 L 1010.105 0.806 L 1010.105 73.206 Z M 29.705 74.006 L 61.505 74.006 A 51.732 51.732 0 0 0 72.484 72.955 C 82.691 70.728 88.531 64.939 90.473 55.381 A 40.134 40.134 0 0 0 91.205 47.406 L 91.205 0.806 L 69.005 0.806 L 69.005 42.606 C 69.005 51.405 65.987 55.082 57.762 55.385 A 31.364 31.364 0 0 1 56.605 55.406 L 34.605 55.406 A 22.943 22.943 0 0 1 30.082 55.013 C 24.736 53.93 22.488 50.538 22.231 43.95 A 34.441 34.441 0 0 1 22.205 42.606 L 22.205 0.806 L 0.005 0.806 L 0.005 47.406 C 0.005 64.841 8.73 73.457 27.816 73.981 A 68.853 68.853 0 0 0 29.705 74.006 Z M 219.705 73.206 L 241.905 73.206 L 241.905 54.406 L 276.805 54.406 A 18.122 18.122 0 0 1 280.084 54.663 C 284.425 55.469 285.905 58.272 285.905 64.506 L 285.905 73.206 L 308.105 73.206 L 308.105 60.906 C 308.105 49.006 302.605 46.106 296.005 44.906 L 296.005 44.706 A 22.978 22.978 0 0 0 300.937 43.003 C 305.503 40.745 307.44 37.183 308.108 32.151 A 40.124 40.124 0 0 0 308.405 26.906 L 308.405 22.306 A 33.46 33.46 0 0 0 307.248 12.853 C 305.018 5.341 299.196 0.806 286.705 0.806 L 219.705 0.806 L 219.705 73.206 Z M 410.205 73.206 L 435.005 73.206 L 441.505 60.406 L 486.505 60.406 L 493.405 73.206 L 518.105 73.206 L 478.305 0.806 L 449.405 0.806 L 410.205 73.206 Z M 526.005 73.206 L 598.105 73.206 L 598.105 54.606 L 548.205 54.606 L 548.205 0.806 L 526.005 0.806 L 526.005 73.206 Z M 971.705 73.206 L 993.905 73.206 L 993.905 0.806 L 971.705 0.806 L 971.705 73.206 Z M 241.905 18.806 L 276.605 18.806 A 34.237 34.237 0 0 1 280.146 18.959 C 283.795 19.344 285.876 20.558 286.556 23.711 A 12.861 12.861 0 0 1 286.805 26.406 L 286.805 28.806 A 12.128 12.128 0 0 1 286.485 31.774 C 285.685 34.926 283.316 36.406 278.605 36.406 L 241.905 36.406 L 241.905 18.806 Z M 463.805 17.606 L 478.205 44.806 L 449.805 44.806 L 463.805 17.606 Z" />
	</g>
</svg>
